<?xml version="1.0" standalone="no"?>
<svg viewBox="0 0 200 200" xmlns="http://www.w3.org/2000/svg">
  <path fill="#000000" d="M38.9,-64.1C52.6,-59.4,67.4,-53.4,73.9,-42.6C80.5,-31.7,78.7,-15.8,78,-0.4C77.2,15,77.6,30,71.4,41.5C65.2,52.9,52.5,60.8,39.5,69.2C26.5,77.5,13.2,86.3,-1.2,88.4C-15.7,90.5,-31.3,85.9,-44.9,77.9C-58.4,69.9,-69.9,58.4,-78.5,44.9C-87.1,31.3,-93,15.6,-92.5,0.2C-92.1,-15.2,-85.4,-30.3,-77,-44.2C-68.6,-58.2,-58.4,-70.9,-45.3,-75.9C-32.2,-80.9,-16.1,-78.2,-1.8,-75.2C12.6,-72.1,25.2,-68.7,38.9,-64.1Z" transform="translate(100 100)" />
</svg>
