<?xml version="1.0" standalone="no"?>
<!DOCTYPE svg PUBLIC "-//W3C//DTD SVG 20010904//EN"
 "http://www.w3.org/TR/2001/REC-SVG-20010904/DTD/svg10.dtd">
<svg version="1.0" xmlns="http://www.w3.org/2000/svg"
 width="472.000000pt" height="166.000000pt" viewBox="0 0 472.000000 166.000000"
 preserveAspectRatio="xMidYMid meet">
<metadata>
Created by potrace 1.16, written by Peter Selinger 2001-2019
</metadata>
<g transform="translate(0.000000,166.000000) scale(0.100000,-0.100000)"
fill="#000000" stroke="none">
<path d="M277 1458 c-26 -51 -72 -140 -103 -197 -83 -155 -94 -145 184 -149
127 -1 232 -6 232 -10 0 -4 -4 -12 -9 -18 -5 -5 -40 -67 -76 -139 -37 -71 -70
-134 -75 -140 -4 -5 -42 -77 -84 -158 -43 -82 -98 -187 -124 -235 -26 -48 -60
-113 -76 -145 -16 -31 -33 -57 -38 -57 -4 0 -8 -16 -8 -35 l0 -35 263 0 263 0
15 33 c16 34 122 237 181 347 20 36 61 115 93 175 32 61 74 142 95 180 20 39
56 107 79 153 l43 82 64 0 c35 0 64 -3 64 -7 0 -5 -9 -19 -20 -33 -11 -14 -20
-30 -20 -37 0 -7 -16 -38 -35 -70 -19 -32 -35 -62 -35 -67 0 -5 -6 -17 -14
-25 -7 -9 -46 -81 -87 -161 -40 -80 -83 -161 -94 -180 -12 -19 -52 -93 -88
-165 -37 -71 -76 -143 -87 -160 -11 -16 -20 -38 -20 -47 0 -17 38 -18 659 -18
619 0 659 1 664 18 3 9 29 60 57 112 28 52 86 160 127 240 42 80 87 165 101
190 54 99 143 266 207 391 9 18 25 19 400 19 l389 0 208 208 c115 114 208 213
208 220 0 9 -169 12 -770 12 l-769 0 -29 -57 c-16 -32 -45 -87 -64 -123 -20
-36 -58 -108 -85 -160 -49 -94 -197 -373 -277 -522 l-41 -78 -102 0 c-57 0
-103 2 -103 4 0 2 20 39 44 82 23 44 73 135 109 204 36 69 77 145 91 170 42
74 34 90 -49 90 l-43 0 59 108 c32 59 59 110 59 113 0 4 18 38 40 75 22 38 40
74 40 81 0 10 -158 13 -783 13 l-782 0 -48 -92z"/>
<path d="M3586 1224 c-290 -293 -318 -324 -312 -348 3 -14 11 -26 16 -26 9 0
78 -50 279 -202 35 -26 68 -48 72 -48 5 0 9 -4 9 -10 0 -7 -216 -10 -629 -10
l-630 0 -20 -28 c-11 -15 -54 -95 -97 -178 -42 -82 -82 -156 -89 -164 -7 -8
-15 -27 -19 -42 l-6 -28 1057 0 1058 0 153 154 c83 85 152 161 152 169 0 9
-42 47 -92 86 -100 75 -239 181 -393 301 -53 41 -105 79 -116 85 -10 5 -18 14
-18 20 1 5 126 132 278 280 152 149 282 280 289 293 l13 22 -318 -2 -318 -1
-319 -323z"/>
<path d="M2633 1048 c-10 -13 -108 -196 -151 -283 -14 -27 -34 -63 -45 -78
-39 -56 -35 -57 277 -57 l284 0 37 73 c52 99 112 211 147 275 16 30 27 60 24
68 -7 19 -558 21 -573 2z"/>
</g>
</svg>
