<?xml version="1.0" standalone="no"?>
<!DOCTYPE svg PUBLIC "-//W3C//DTD SVG 20010904//EN"
 "http://www.w3.org/TR/2001/REC-SVG-20010904/DTD/svg10.dtd">
<svg version="1.0" xmlns="http://www.w3.org/2000/svg"
 width="814.000000pt" height="490.000000pt" viewBox="0 0 814.000000 490.000000"
 preserveAspectRatio="xMidYMid meet">
<metadata>
Created by potrace 1.16, written by Peter Selinger 2001-2019
</metadata>
<g transform="translate(0.000000,490.000000) scale(0.100000,-0.100000)"
fill="#000000" stroke="none">
<path d="M412 4359 c183 -242 846 -1123 1473 -1956 627 -834 1145 -1518 1150
-1519 9 -3 668 947 681 980 4 10 -477 671 -597 822 -5 6 137 204 382 530 215
285 398 527 408 537 16 16 57 17 643 15 l627 -3 -265 -360 c-146 -198 -334
-452 -417 -565 -431 -585 -569 -773 -573 -785 -4 -10 38 -2 146 26 83 22 156
39 161 37 10 -3 -32 -63 -471 -663 -125 -170 -392 -537 -595 -815 -202 -278
-373 -511 -378 -518 -5 -7 -8 -14 -6 -16 2 -2 157 108 344 246 187 137 480
352 650 477 171 126 560 412 865 636 305 224 706 519 891 654 185 135 332 247
328 249 -5 2 -78 -11 -164 -28 -86 -17 -160 -30 -165 -28 -5 2 164 230 376
508 211 278 459 605 552 727 l167 222 325 1 325 1 36 47 c19 26 194 257 388
515 l352 467 -2403 0 -2403 0 -171 -222 c-93 -123 -286 -375 -428 -560 -142
-186 -261 -338 -265 -338 -6 0 -760 985 -837 1092 l-19 27 -723 1 -723 0 333
-441z"/>
</g>
</svg>
