<?xml version="1.0" standalone="no"?>
<!DOCTYPE svg PUBLIC "-//W3C//DTD SVG 20010904//EN"
 "http://www.w3.org/TR/2001/REC-SVG-20010904/DTD/svg10.dtd">
<svg version="1.0" xmlns="http://www.w3.org/2000/svg"
 width="819.000000pt" height="268.000000pt" viewBox="0 0 819.000000 268.000000"
 preserveAspectRatio="xMidYMid meet">
<metadata>
Created by potrace 1.16, written by Peter Selinger 2001-2019
</metadata>
<g transform="translate(0.000000,268.000000) scale(0.100000,-0.100000)"
fill="#000000" stroke="none">
<path d="M90 2569 c0 -24 48 -98 97 -149 18 -19 33 -39 33 -44 0 -5 7 -16 15
-25 30 -30 65 -76 65 -83 0 -5 8 -16 17 -27 10 -10 29 -33 43 -51 14 -19 30
-38 35 -44 6 -6 21 -28 35 -48 14 -21 28 -38 33 -38 4 0 7 -5 7 -10 0 -6 14
-24 30 -42 17 -17 30 -37 30 -44 0 -8 4 -14 9 -14 4 0 21 -19 37 -42 16 -24
37 -52 48 -63 10 -11 25 -31 34 -45 9 -14 22 -29 29 -33 7 -4 13 -14 13 -22 0
-8 9 -19 20 -25 11 -6 20 -17 20 -25 0 -8 4 -15 9 -15 5 0 18 -15 30 -32 11
-18 26 -42 33 -53 7 -11 18 -24 24 -30 5 -5 23 -28 39 -50 16 -22 35 -44 42
-48 7 -4 13 -15 13 -23 0 -8 7 -17 15 -20 8 -4 15 -13 15 -20 0 -8 7 -17 15
-20 8 -4 13 -10 10 -14 -3 -4 2 -10 10 -14 8 -3 15 -11 15 -18 0 -7 9 -19 20
-26 11 -7 20 -17 20 -22 0 -6 8 -18 17 -28 10 -11 27 -32 38 -48 11 -15 53
-70 93 -121 39 -52 72 -95 72 -97 0 -2 14 -18 30 -36 17 -18 29 -35 26 -37 -2
-2 6 -14 18 -26 11 -12 32 -37 46 -56 14 -18 33 -41 43 -49 9 -9 17 -22 17
-29 0 -6 8 -17 18 -22 9 -6 13 -11 9 -11 -8 0 7 -21 36 -48 9 -9 17 -20 17
-24 0 -4 10 -18 23 -30 12 -13 37 -45 55 -72 44 -64 64 -60 119 24 24 36 50
72 58 81 8 9 15 19 15 23 0 4 6 14 13 21 6 8 23 30 37 50 14 21 33 46 43 56 9
10 17 22 17 25 0 3 14 24 31 45 17 21 27 39 22 39 -4 0 0 5 10 11 9 5 17 17
17 24 0 8 5 15 10 15 6 0 15 11 20 25 5 14 14 25 20 25 16 0 12 57 -5 64 -8 3
-15 12 -15 21 0 8 -4 15 -9 15 -4 0 -20 18 -35 41 -15 22 -36 48 -46 57 -11 9
-20 21 -20 27 0 6 -13 25 -29 43 -17 17 -27 32 -23 32 4 0 -1 5 -10 11 -10 5
-18 15 -18 22 0 7 -9 18 -20 25 -11 7 -20 17 -20 22 0 6 -8 19 -17 29 -44 48
-44 49 -26 70 10 11 23 26 28 33 6 7 26 33 45 58 19 25 38 47 43 48 4 2 7 9 7
15 0 7 18 32 40 57 59 68 59 67 53 74 -4 3 -2 6 3 6 5 0 36 37 69 81 33 45 68
90 78 100 9 11 17 24 17 29 0 6 105 10 295 10 l295 0 -77 -102 c-42 -57 -100
-135 -130 -174 -29 -39 -53 -76 -53 -82 0 -6 -3 -12 -7 -14 -13 -5 -73 -86
-73 -97 0 -6 -3 -11 -7 -11 -5 0 -30 -30 -58 -68 -61 -82 -66 -89 -87 -113
-10 -10 -18 -22 -18 -25 0 -3 -32 -48 -70 -100 -39 -52 -70 -98 -70 -103 0
-15 31 -36 38 -25 4 6 29 15 57 21 41 9 47 9 32 -1 -9 -7 -17 -17 -17 -22 0
-8 -28 -47 -64 -86 -9 -10 -16 -22 -16 -26 0 -5 -9 -18 -21 -30 -11 -12 -26
-37 -34 -55 -8 -17 -14 -29 -15 -24 0 10 -36 -28 -51 -54 -6 -13 -16 -28 -21
-33 -5 -6 -44 -59 -86 -117 -42 -59 -85 -117 -95 -130 -9 -13 -53 -73 -96
-134 -44 -60 -89 -122 -100 -137 -12 -14 -21 -31 -21 -36 0 -5 -7 -12 -15 -16
-8 -3 -15 -10 -15 -16 0 -6 -13 -24 -30 -40 -41 -40 -39 -60 5 -60 19 0 35 5
35 10 0 6 8 10 17 10 9 0 13 3 10 6 -4 4 15 21 41 38 26 17 56 39 66 48 11 10
23 18 28 18 4 0 16 8 26 17 10 10 29 25 42 33 13 8 31 22 39 30 9 8 37 29 61
45 43 29 69 49 94 70 6 6 31 24 56 40 25 17 54 38 64 48 11 9 23 17 28 17 4 0
16 8 26 17 10 10 29 25 42 33 12 8 28 20 34 25 6 6 33 26 61 45 27 19 55 40
62 47 7 6 22 15 33 18 11 3 20 10 20 14 0 5 19 21 43 37 23 16 51 37 61 47 11
9 23 17 28 17 4 0 16 8 26 18 10 9 29 24 42 32 12 8 28 20 34 25 6 6 33 26 61
45 27 19 55 40 62 47 7 6 22 14 32 18 11 3 22 12 25 20 3 8 10 15 16 15 5 0
19 8 29 17 31 29 46 40 70 52 12 7 31 21 42 32 10 10 23 19 28 19 5 0 26 16
47 35 20 19 43 35 50 35 8 0 14 4 14 8 0 5 12 15 28 23 50 26 69 60 39 72 -15
6 -67 -2 -82 -13 -5 -4 -25 -10 -43 -13 -30 -6 -32 -5 -18 8 8 9 34 42 57 75
23 33 46 60 51 60 5 0 11 8 15 18 3 9 24 38 45 63 21 26 38 52 38 58 0 6 4 11
8 11 5 0 30 30 57 68 27 37 56 74 65 82 8 8 42 51 75 95 33 44 63 85 68 90 4
6 16 22 28 38 l20 27 168 0 c155 0 169 2 186 20 10 11 15 20 12 20 -4 0 2 9
13 20 11 11 20 26 20 33 0 8 11 20 25 27 14 7 25 20 25 27 0 7 7 16 15 19 8 4
13 10 10 14 -3 4 2 10 10 14 8 3 15 11 15 17 0 7 7 19 15 28 35 36 65 77 65
88 0 6 4 13 9 15 9 3 103 123 134 170 9 15 17 36 17 48 l0 20 -1280 0 -1280 0
-10 -25 c-5 -14 -14 -25 -19 -25 -5 0 -14 -13 -21 -29 -6 -16 -18 -32 -26 -35
-8 -3 -14 -12 -14 -20 0 -9 -9 -20 -20 -26 -11 -6 -20 -15 -20 -21 0 -10 -3
-14 -43 -60 -12 -14 -31 -38 -42 -54 -11 -15 -28 -36 -37 -47 -10 -10 -18 -21
-18 -24 0 -5 -38 -58 -65 -91 -5 -7 -19 -24 -30 -38 -41 -53 -55 -68 -55 -58
0 9 -16 31 -58 78 -10 11 -29 36 -42 55 -13 19 -27 37 -30 40 -4 3 -25 30 -47
61 -23 31 -47 62 -55 70 -7 8 -25 32 -40 54 -33 51 -58 83 -80 103 -10 9 -18
22 -18 30 0 7 -7 15 -15 18 -8 3 -17 14 -20 25 -6 18 -22 19 -411 19 -402 0
-404 0 -404 -21z"/>
<path d="M4173 1963 c-17 -32 -51 -96 -76 -143 -24 -47 -54 -102 -66 -122 -13
-20 -21 -47 -19 -60 l3 -23 217 -3 218 -2 -33 -53 c-18 -28 -44 -74 -57 -102
-14 -27 -28 -52 -33 -53 -4 -2 -5 -7 -2 -12 3 -4 -6 -24 -20 -44 -31 -46 -95
-166 -95 -178 0 -6 -8 -22 -19 -36 -10 -15 -43 -74 -73 -132 -30 -58 -69 -131
-86 -162 -18 -32 -32 -71 -32 -88 l0 -30 245 0 245 0 6 25 c3 14 10 25 14 25
6 0 34 54 35 70 0 3 7 16 15 30 16 26 28 49 124 233 32 61 63 115 68 118 5 3
11 12 12 20 8 38 19 69 25 69 4 0 20 26 36 58 17 31 33 60 38 63 4 3 9 16 12
28 2 12 17 43 33 69 15 26 31 55 35 65 5 13 18 17 62 17 l56 0 -18 -27 c-10
-16 -28 -46 -38 -68 -11 -22 -23 -42 -28 -43 -4 -2 -5 -7 -2 -12 3 -4 -6 -23
-18 -41 -39 -58 -88 -147 -92 -169 -2 -11 -12 -33 -22 -48 -10 -15 -25 -40
-33 -57 -8 -16 -21 -36 -27 -43 -7 -7 -13 -20 -13 -28 0 -8 -4 -14 -8 -14 -5
0 -9 -6 -9 -12 0 -7 -21 -50 -46 -95 -26 -45 -47 -87 -47 -93 0 -5 -5 -10 -11
-10 -6 0 -9 -6 -6 -13 3 -8 -6 -27 -19 -42 -13 -15 -24 -39 -24 -52 l0 -23
608 0 607 0 38 78 c21 42 57 113 81 157 24 44 70 132 104 196 33 64 73 136 88
160 15 24 27 50 27 56 0 7 5 13 10 13 6 0 8 3 4 6 -6 7 62 137 75 142 4 2 8
12 8 23 0 11 7 22 16 26 8 3 13 12 10 19 -5 12 54 14 357 14 l361 0 188 188
c103 103 188 195 188 205 0 16 -45 17 -716 17 -568 0 -715 -3 -711 -12 4 -13
-16 -54 -72 -145 -18 -28 -34 -61 -36 -73 -2 -11 -12 -33 -22 -48 -10 -15 -27
-45 -38 -67 -11 -22 -26 -46 -32 -53 -7 -7 -14 -18 -14 -23 -3 -20 -5 -26 -32
-71 -64 -113 -78 -138 -73 -138 3 0 -15 -34 -39 -75 -25 -42 -45 -79 -45 -84
0 -5 -7 -14 -15 -21 -8 -7 -15 -21 -15 -31 0 -17 -9 -19 -96 -19 l-95 0 20 28
c11 16 42 71 69 123 27 52 75 142 106 201 31 59 56 114 56 122 0 17 -22 26
-66 26 l-34 0 55 108 c30 59 69 131 85 161 56 101 130 91 -688 91 l-717 0 -32
-57z"/>
<path d="M7470 2012 c0 -5 -128 -137 -285 -294 -272 -271 -298 -304 -277 -333
13 -18 89 -75 101 -75 6 0 11 -4 11 -8 0 -7 64 -55 193 -145 l40 -27 -580 0
-579 0 -23 -26 c-13 -15 -24 -32 -26 -38 -4 -21 -19 -52 -60 -121 -23 -38 -45
-82 -49 -98 -3 -15 -15 -36 -25 -46 -11 -11 -22 -33 -26 -50 l-7 -31 976 0
975 0 48 52 c26 29 87 90 136 137 56 56 87 93 87 107 0 30 -3 32 -250 216 -36
27 -76 57 -90 68 -14 11 -44 34 -67 51 -24 17 -43 34 -43 38 0 4 -17 17 -37
29 -86 50 -101 24 166 291 132 133 245 241 251 241 8 0 40 50 40 65 0 3 -135
5 -300 5 -165 0 -300 -4 -300 -8z"/>
<path d="M6308 1553 c-18 -21 -51 -83 -44 -83 3 0 -15 -34 -39 -75 -25 -42
-45 -80 -45 -85 0 -6 -5 -10 -11 -10 -6 0 -9 -7 -5 -15 3 -8 1 -15 -5 -15 -6
0 -8 -4 -5 -8 3 -5 -4 -19 -15 -31 -11 -12 -19 -29 -17 -39 3 -15 27 -17 272
-20 261 -2 268 -2 273 18 3 11 9 20 13 20 8 0 21 29 26 57 1 6 18 38 38 70 20
32 36 64 36 70 0 6 5 13 11 15 5 2 11 10 13 18 4 20 23 61 38 81 6 9 8 24 5
33 -6 14 -35 16 -265 16 -234 0 -260 -2 -274 -17z"/>
</g>
</svg>
